<svg height="512" viewBox="0 0 64 64" width="512" xmlns="http://www.w3.org/2000/svg"><g id="Filled_outline" data-name="Filled outline"><path d="m48 19v-10h-8v10l-4 8v32a2 2 0 0 0 2 2h12a2 2 0 0 0 2-2v-32z" fill="#f49656"/><path d="m52 59v-32l-4-8v-2h-8v2l-4 8v32a2 2 0 0 0 2 2h12a2 2 0 0 0 2-2z" fill="#e97424"/><path d="m31 39-2-4v-6l2-4h-16l2 4v6l-2 4v16l-1 3a2.107 2.107 0 0 0 2 3h14a2.072 2.072 0 0 0 2-3l-1-3z" fill="#e97424"/><path d="m15 19h16v6h-16z" fill="#e1462b"/><path d="m17 29h12v6h-12z" fill="#f49656"/><path d="m18 19h2v3h-2z" fill="#ffd782"/><path d="m22 19h2v3h-2z" fill="#ffd782"/><path d="m26 19h2v3h-2z" fill="#ffd782"/><path d="m15 39h16v16h-16z" fill="#f4f4e6"/><path d="m17 58h2v3h-2z" fill="#ffd782"/><path d="m22 58h2v3h-2z" fill="#ffd782"/><path d="m27 58h2v3h-2z" fill="#ffd782"/><path d="m39 58h2v3h-2z" fill="#f4f4e6"/><path d="m43 58h2v3h-2z" fill="#f4f4e6"/><path d="m47 58h2v3h-2z" fill="#f4f4e6"/><path d="m16.988 45 6 6 6-6s-1-2-6-2-6 2-6 2z" fill="#e1462b"/><path d="m38 3h12v6h-12z" fill="#e1462b"/><path d="m41 3h2v3h-2z" fill="#ffd782"/><path d="m45 3h2v3h-2z" fill="#ffd782"/><path d="m36 31h16v22h-16z" fill="#fcf05a"/><g fill="#e1462b"><path d="m40 44h8v2h-8z"/><path d="m39 48h4v2h-4z"/><path d="m45 48h4v2h-4z"/><path d="m46 39h-4a1 1 0 0 1 -.832-.445l-2-3 1.664-1.11 1.703 2.555h2.93l1.7-2.555 1.664 1.11-2 3a1 1 0 0 1 -.829.445z"/><path d="m43 34h2v8h-2z"/></g><path d="m47 53h2v3h-2z" fill="#f4f4e6"/><path d="m40 26h2v2h-2z" fill="#f4f4e6"/><path d="m42 22h2v2h-2z" fill="#f4f4e6"/><path d="m16 62h14a3.373 3.373 0 0 0 2.775-1.447 2.971 2.971 0 0 0 .174-2.869l-.949-2.846v-15.838a1.83 1.83 0 0 0 -.105-.447l-1.895-3.789v-5.528l1.9-3.789c.006-.012.027-.081.036-.1a2.13 2.13 0 0 0 .064-.347v-6a1 1 0 0 0 -1-1h-16a1 1 0 0 0 -1 1v6a2.13 2.13 0 0 0 .069.344c.009.022.03.091.036.1l1.895 3.792v5.528l-1.895 3.789a1.83 1.83 0 0 0 -.105.447v15.838l-.929 2.79a3.1 3.1 0 0 0 .224 2.963 3.341 3.341 0 0 0 2.705 1.409zm15.1-2.543a1.4 1.4 0 0 1 -1.1.543h-1v-2h-2v2h-3v-2h-2v2h-3v-2h-2v2h-1a1.321 1.321 0 0 1 -1.048-.531 1.186 1.186 0 0 1 0-1.153l.769-2.316h14.559l.8 2.4c.288.653.088.957.02 1.057zm-15.1-14.476a.99.99 0 0 0 .281.726l6 6a1 1 0 0 0 1.414 0l6-6a1 1 0 0 0 .188-1.154c-.131-.261-1.434-2.553-6.895-2.553s-6.763 2.292-6.894 2.553a.97.97 0 0 0 -.094.3v-4.853h14v14h-14zm2.4.019a8.247 8.247 0 0 1 4.586-1 8.293 8.293 0 0 1 4.59 1l-4.59 4.589zm9.98-17h-10.762l-1-2h12.764zm-10.38 2h10v4h-10zm-.382 6h10.764l1 2h-12.764zm-1.618-16h2v2h2v-2h2v2h2v-2h2v2h2v-2h2v4h-14z"/><path d="m40 44h8v2h-8z"/><path d="m39 48h4v2h-4z"/><path d="m45 48h4v2h-4z"/><path d="m42 39h1v3h2v-3h1a1 1 0 0 0 .832-.445l2-3-1.664-1.11-1.703 2.555h-.465v-3h-2v3h-.465l-1.7-2.555-1.664 1.11 2 3a1 1 0 0 0 .829.445z"/><path d="m40 26h2v2h-2z"/><path d="m42 22h2v2h-2z"/><path d="m38 62h12a3 3 0 0 0 3-3v-32a1 1 0 0 0 -.1-.447l-3.9-7.789v-8.764h1a1 1 0 0 0 1-1v-6a1 1 0 0 0 -1-1h-12a1 1 0 0 0 -1 1v6a1 1 0 0 0 1 1h1v8.764l-3.9 7.789a1 1 0 0 0 -.1.447v32a3 3 0 0 0 3 3zm12-2h-1v-2h-2v2h-2v-2h-2v2h-2v-2h-2v2h-1a1 1 0 0 1 -1-1v-5h10v2h2v-2h2v5a1 1 0 0 1 -1 1zm-13-28h14v20h-14zm2-28h2v2h2v-2h2v2h2v-2h2v4h-10zm8 6v6h-6v-6zm-6.1 9.447a1 1 0 0 0 .1-.447v-1h6v1a1 1 0 0 0 .1.447l3.9 7.789v2.764h-14v-2.764z"/></g></svg>